<svg width="25" height="26" viewBox="0 0 25 26" fill="none" xmlns="http://www.w3.org/2000/svg">
<path d="M12.5928 1.5C14.4557 1.51514 16.2854 1.9832 17.9248 2.86035L18.25 3.04102C19.9844 4.04248 21.4272 5.47954 22.4355 7.20996C23.444 8.94045 23.9828 10.9044 23.999 12.9072C24.0152 14.91 23.5086 16.8824 22.5283 18.6289C21.548 20.3755 20.1283 21.8359 18.4102 22.8652C16.6921 23.8946 14.7348 24.4575 12.7324 24.498C10.73 24.5386 8.75151 24.0547 6.99316 23.0957C5.23495 22.1367 3.75717 20.7356 2.70703 19.0303C1.72247 17.4314 1.14614 15.617 1.02441 13.7471L1.00586 13.3721L1 13.0156L1.00586 12.627C1.07032 10.641 1.64854 8.70589 2.68359 7.00977C3.71868 5.3136 5.17539 3.91472 6.91211 2.94922C8.64878 1.98377 10.6059 1.48392 12.5928 1.5ZM14.75 6.71973L14.748 6.69043L14.7393 6.54395L14.7373 6.51562L14.7344 6.48633L14.7012 6.2832C14.6019 5.81508 14.3554 5.38872 13.9951 5.06836C13.6349 4.74802 13.1825 4.55362 12.7061 4.50977L12.5 4.5C11.9489 4.50007 11.4167 4.70215 11.0049 5.06836C10.5931 5.4345 10.3302 5.93913 10.2656 6.48633L10.2627 6.51562L10.2607 6.54395L10.252 6.69043L10.25 6.71973V13.0342L10.252 13.0684L10.2637 13.2324L10.2656 13.2627L10.2695 13.2939C10.3208 13.6843 10.4738 14.0544 10.7129 14.3672L10.7324 14.3926L10.7529 14.416L10.8613 14.541L10.8848 14.5674L14.6836 18.3662L14.709 18.3887L14.8262 18.4912L14.8477 18.5098L14.8711 18.5273C15.2657 18.8334 15.7506 19 16.25 19C16.7494 19 17.2343 18.8334 17.6289 18.5273L17.6543 18.5078L17.6777 18.4873L17.7959 18.3828L17.8418 18.3418L17.8838 18.2959L17.9873 18.1777L18.0078 18.1543L18.0273 18.1289C18.3335 17.7344 18.5 17.2494 18.5 16.75C18.5 16.2506 18.3334 15.7656 18.0273 15.3711L18.0078 15.3457L17.9873 15.3213L17.8838 15.2041L17.8633 15.1807L17.8408 15.1592L14.75 12.0674V6.71973Z" fill="#C8C8C8" stroke="#C8C8C8" stroke-width="2"/>
</svg>
