<svg width="23" height="24" viewBox="0 0 23 24" fill="none" xmlns="http://www.w3.org/2000/svg">
<path d="M20.875 0.75H2.125C1.62772 0.75 1.15081 0.947544 0.799175 1.29917C0.447544 1.65081 0.25 2.12772 0.25 2.625V21.375C0.25 21.8723 0.447544 22.3492 0.799175 22.7008C1.15081 23.0525 1.62772 23.25 2.125 23.25H20.875C21.3723 23.25 21.8492 23.0525 22.2008 22.7008C22.5525 22.3492 22.75 21.8723 22.75 21.375V2.625C22.75 2.12772 22.5525 1.65081 22.2008 1.29917C21.8492 0.947544 21.3723 0.75 20.875 0.75ZM19 18.5625H4C3.75136 18.5625 3.5129 18.4637 3.33709 18.2879C3.16127 18.1121 3.0625 17.8736 3.0625 17.625C3.0625 17.3764 3.16127 17.1379 3.33709 16.9621C3.5129 16.7863 3.75136 16.6875 4 16.6875H19C19.2486 16.6875 19.4871 16.7863 19.6629 16.9621C19.8387 17.1379 19.9375 17.3764 19.9375 17.625C19.9375 17.8736 19.8387 18.1121 19.6629 18.2879C19.4871 18.4637 19.2486 18.5625 19 18.5625ZM19 12.9375H4C3.75136 12.9375 3.5129 12.8387 3.33709 12.6629C3.16127 12.4871 3.0625 12.2486 3.0625 12C3.0625 11.7514 3.16127 11.5129 3.33709 11.3371C3.5129 11.1613 3.75136 11.0625 4 11.0625H19C19.2486 11.0625 19.4871 11.1613 19.6629 11.3371C19.8387 11.5129 19.9375 11.7514 19.9375 12C19.9375 12.2486 19.8387 12.4871 19.6629 12.6629C19.4871 12.8387 19.2486 12.9375 19 12.9375ZM19 7.3125H4C3.75136 7.3125 3.5129 7.21373 3.33709 7.03791C3.16127 6.8621 3.0625 6.62364 3.0625 6.375C3.0625 6.12636 3.16127 5.8879 3.33709 5.71209C3.5129 5.53627 3.75136 5.4375 4 5.4375H19C19.2486 5.4375 19.4871 5.53627 19.6629 5.71209C19.8387 5.8879 19.9375 6.12636 19.9375 6.375C19.9375 6.62364 19.8387 6.8621 19.6629 7.03791C19.4871 7.21373 19.2486 7.3125 19 7.3125Z" fill="#C8C8C8"/>
</svg>
