<svg width="12" height="18" viewBox="0 0 12 18" fill="none" xmlns="http://www.w3.org/2000/svg">
<path d="M6 8.58366C5.44747 8.58366 4.91757 8.36417 4.52687 7.97346C4.13617 7.58276 3.91667 7.05286 3.91667 6.50033C3.91667 5.94779 4.13617 5.41789 4.52687 5.02719C4.91757 4.63649 5.44747 4.41699 6 4.41699C6.55254 4.41699 7.08244 4.63649 7.47314 5.02719C7.86384 5.41789 8.08334 5.94779 8.08334 6.50033C8.08334 6.77391 8.02945 7.04482 7.92475 7.29758C7.82006 7.55034 7.6666 7.78001 7.47314 7.97346C7.27969 8.16692 7.05002 8.32038 6.79726 8.42508C6.5445 8.52977 6.27359 8.58366 6 8.58366ZM6 0.666992C4.45291 0.666992 2.96918 1.28157 1.87522 2.37554C0.781253 3.4695 0.166672 4.95323 0.166672 6.50033C0.166672 10.8753 6 17.3337 6 17.3337C6 17.3337 11.8333 10.8753 11.8333 6.50033C11.8333 4.95323 11.2188 3.4695 10.1248 2.37554C9.03083 1.28157 7.5471 0.666992 6 0.666992Z" fill="black"/>
</svg>
