<svg width="22" height="22" viewBox="0 0 22 22" fill="none" xmlns="http://www.w3.org/2000/svg">
<path d="M11 1.83301C9.29818 1.83301 7.66608 2.50905 6.46272 3.71241C5.25936 4.91576 4.58332 6.54787 4.58332 8.24967V11.4837C4.58345 11.6259 4.5505 11.7662 4.48707 11.8934L2.91315 15.0403C2.83627 15.1941 2.79997 15.3649 2.80769 15.5366C2.81541 15.7084 2.86691 15.8753 2.95729 16.0215C3.04766 16.1677 3.17392 16.2884 3.32407 16.3721C3.47421 16.4558 3.64326 16.4997 3.81515 16.4997H18.1848C18.3567 16.4997 18.5258 16.4558 18.6759 16.3721C18.8261 16.2884 18.9523 16.1677 19.0427 16.0215C19.1331 15.8753 19.1846 15.7084 19.1923 15.5366C19.2 15.3649 19.1637 15.1941 19.0868 15.0403L17.5138 11.8934C17.4501 11.7662 17.4168 11.6259 17.4167 11.4837V8.24967C17.4167 6.54787 16.7406 4.91576 15.5373 3.71241C14.3339 2.50905 12.7018 1.83301 11 1.83301ZM11 19.2497C10.4311 19.25 9.87604 19.0738 9.41142 18.7455C8.9468 18.4171 8.59546 17.9527 8.40582 17.4163H13.5942C13.4045 17.9527 13.0532 18.4171 12.5886 18.7455C12.1239 19.0738 11.5689 19.25 11 19.2497Z" fill="#060A56"/>
</svg>
