<svg width="23" height="24" viewBox="0 0 23 24" fill="none" xmlns="http://www.w3.org/2000/svg">
<path d="M6.5 14.25H16.5C17.8924 14.25 19.2273 14.8035 20.2119 15.7881C21.1965 16.7727 21.75 18.1076 21.75 19.5L21.7363 19.7715C21.6739 20.4011 21.3957 20.993 20.9443 21.4443C20.4286 21.9601 19.7293 22.25 19 22.25H4L3.72852 22.2363C3.09887 22.1739 2.50699 21.8957 2.05566 21.4443C1.53994 20.9286 1.25 20.2293 1.25 19.5C1.25 18.1076 1.80352 16.7727 2.78809 15.7881C3.71102 14.8652 4.94181 14.3213 6.23926 14.2568L6.5 14.25ZM11.5 1.75C12.5609 1.75 13.578 2.17173 14.3281 2.92188C15.0783 3.67202 15.5 4.68913 15.5 5.75L15.4951 5.94824C15.4461 6.93693 15.0314 7.87484 14.3281 8.57812C13.578 9.32827 12.5609 9.75 11.5 9.75L11.3018 9.74512C10.3131 9.6961 9.37516 9.28141 8.67188 8.57812C7.92173 7.82798 7.5 6.81087 7.5 5.75C7.5 4.68913 7.92173 3.67202 8.67188 2.92188C9.37516 2.21859 10.3131 1.8039 11.3018 1.75488L11.5 1.75Z" fill="#C8C8C8" stroke="#C8C8C8" stroke-width="2"/>
</svg>
