<svg width="21" height="21" viewBox="0 0 21 21" fill="none" xmlns="http://www.w3.org/2000/svg">
<path d="M10.5 19.75V7.395M10.5 3.034V1.25M10.5 3.034C11.0782 3.034 11.6327 3.26368 12.0415 3.67251C12.4503 4.08134 12.68 4.63583 12.68 5.214C12.68 5.79217 12.4503 6.34666 12.0415 6.75549C11.6327 7.16432 11.0782 7.394 10.5 7.394C9.92182 7.394 9.36732 7.16432 8.9585 6.75549C8.54967 6.34666 8.31999 5.79217 8.31999 5.214C8.31999 4.63583 8.54967 4.08134 8.9585 3.67251C9.36732 3.26368 9.92182 3.034 10.5 3.034ZM3.89299 19.75V14.002M3.89299 14.002C3.31468 14.002 2.75956 13.7718 2.35064 13.3628C1.94172 12.9539 1.71199 12.3993 1.71199 11.821C1.71199 11.2428 1.94266 10.6883 2.35149 10.2795C2.76032 9.87068 3.31482 9.641 3.89299 9.641M3.89299 14.002C4.47129 14.002 5.02541 13.7718 5.43433 13.3628C5.84326 12.9539 6.07299 12.3993 6.07299 11.821C6.07299 11.2428 5.84331 10.6883 5.43448 10.2795C5.02565 9.87068 4.47116 9.641 3.89299 9.641M3.89299 9.641V1.25M17.107 19.75V16.645M17.107 12.284V1.25M17.107 12.284C17.6852 12.284 18.2397 12.5137 18.6485 12.9225C19.0573 13.3313 19.287 13.8858 19.287 14.464C19.287 14.7503 19.2306 15.0338 19.121 15.2983C19.0115 15.5627 18.8509 15.8031 18.6485 16.0055C18.446 16.2079 18.2057 16.3685 17.9412 16.4781C17.6767 16.5876 17.3933 16.644 17.107 16.644C16.8207 16.644 16.5372 16.5876 16.2727 16.4781C16.0082 16.3685 15.7679 16.2079 15.5655 16.0055C15.3631 15.8031 15.2025 15.5627 15.0929 15.2983C14.9834 15.0338 14.927 14.7503 14.927 14.464C14.927 13.8858 15.1567 13.3313 15.5655 12.9225C15.9743 12.5137 16.5288 12.284 17.107 12.284Z" stroke="white" stroke-width="1.5" stroke-miterlimit="10" stroke-linecap="round"/>
</svg>
