<svg width="25" height="26" viewBox="0 0 25 26" fill="none" xmlns="http://www.w3.org/2000/svg">
<path d="M12.5928 1.5C14.4557 1.51514 16.2854 1.9832 17.9248 2.86035L18.25 3.04102C19.8759 3.97982 21.2455 5.30144 22.2412 6.88867L22.4355 7.20996C23.444 8.94045 23.9828 10.9044 23.999 12.9072C24.0142 14.7849 23.5695 16.6357 22.7061 18.2988L22.5283 18.6289C21.6092 20.2664 20.3038 21.652 18.7285 22.667L18.4102 22.8652C16.7995 23.8302 14.9786 24.3854 13.1074 24.4844L12.7324 24.498C10.8551 24.536 8.99874 24.1137 7.3252 23.2705L6.99316 23.0957C5.3447 22.1966 3.94323 20.9085 2.90918 19.3457L2.70703 19.0303C1.72247 17.4314 1.14614 15.617 1.02441 13.7471L1.00586 13.3721L1 13.0156L1.00586 12.627C1.07032 10.641 1.64854 8.70589 2.68359 7.00977C3.65404 5.41952 4.99487 4.09024 6.58984 3.13477L6.91211 2.94922C8.54026 2.0441 10.3621 1.54802 12.2207 1.50293L12.5928 1.5ZM14.75 6.71973L14.748 6.69043L14.7393 6.54395L14.7373 6.51562L14.7344 6.48633L14.7012 6.2832C14.6161 5.88197 14.4229 5.51132 14.1426 5.21191L13.9951 5.06836C13.6349 4.74802 13.1825 4.55362 12.7061 4.50977L12.5 4.5C12.0179 4.50006 11.5502 4.65456 11.165 4.93848L11.0049 5.06836C10.5931 5.4345 10.3302 5.93914 10.2656 6.48633L10.2627 6.51562L10.2607 6.54395L10.252 6.69043L10.25 6.71973V13.0342L10.252 13.0684L10.2637 13.2324L10.2656 13.2627L10.2695 13.2939C10.3208 13.6843 10.4738 14.0544 10.7129 14.3672L10.7324 14.3926L10.7529 14.416L10.8613 14.541L10.8848 14.5674L14.6836 18.3662L14.709 18.3887L14.8262 18.4912L14.8477 18.5098L14.8711 18.5273C15.2657 18.8334 15.7506 19 16.25 19C16.7494 19 17.2343 18.8334 17.6289 18.5273L17.6543 18.5078L17.6777 18.4873L17.7959 18.3828L17.8418 18.3418L17.8838 18.2959L17.9873 18.1777L18.0078 18.1543L18.0273 18.1289C18.3335 17.7344 18.5 17.2494 18.5 16.75C18.5 16.2507 18.3334 15.7657 18.0273 15.3711L18.0078 15.3457L17.9873 15.3213L17.8838 15.2041L17.8633 15.1807L17.8408 15.1592L14.75 12.0674V6.71973Z" stroke="#C8C8C8" stroke-width="2"/>
</svg>
