<svg width="23" height="24" viewBox="0 0 23 24" fill="none" xmlns="http://www.w3.org/2000/svg">
<path d="M11.5004 1.18848C11.8383 1.18853 12.1247 1.27244 12.3842 1.44043L12.4935 1.51758L12.5004 1.52148L20.5004 7.52148L20.5092 7.52832C20.7115 7.67681 20.8698 7.86435 20.9896 8.10352C21.0791 8.28211 21.134 8.46483 21.1556 8.65723L21.1664 8.85352V20.8555C21.1663 21.3211 21.0119 21.6955 20.6752 22.0322C20.3806 22.3267 20.0581 22.481 19.6713 22.5146L19.5013 22.5215H15.5004C15.375 22.5215 15.3174 22.4901 15.2592 22.4316C15.2142 22.3865 15.1852 22.3418 15.1732 22.2695L15.1664 22.1865V15.5215C15.1663 14.8915 14.9421 14.3162 14.4886 13.8643C14.0935 13.4705 13.6053 13.2493 13.0687 13.1992L12.8353 13.1885H10.1664C9.53645 13.1886 8.96105 13.4129 8.50916 13.8662C8.11551 14.2612 7.89425 14.7497 7.84412 15.2861L7.83337 15.5195V22.1885C7.83337 22.3137 7.8019 22.3722 7.74255 22.4316C7.69795 22.4762 7.65427 22.5053 7.58337 22.5166L7.50232 22.5215H3.50037C3.03417 22.5215 2.6601 22.3677 2.32458 22.0322C2.03101 21.7386 1.87586 21.415 1.84119 21.0254L1.83337 20.8535V8.85547L1.84412 8.65918C1.86608 8.46617 1.92138 8.28264 2.01111 8.10352C2.10128 7.9236 2.21353 7.77304 2.349 7.64648L2.49255 7.52734L10.5004 1.52148L10.5062 1.51758C10.7945 1.29794 11.114 1.18848 11.5004 1.18848Z" stroke="#C8C8C8" stroke-width="2"/>
</svg>
