<svg width="27" height="26" viewBox="0 0 27 26" fill="none" xmlns="http://www.w3.org/2000/svg">
<path d="M22.875 1L23.1348 1.0127C23.7356 1.07242 24.3008 1.33788 24.7314 1.76855L24.9053 1.96094C25.2882 2.42811 25.5 3.01566 25.5 3.625V22.375C25.5 23.0712 25.2237 23.7392 24.7314 24.2314C24.2392 24.7237 23.5712 25 22.875 25H4.125C3.51566 25 2.92811 24.7882 2.46094 24.4053L2.26855 24.2314C1.77627 23.7392 1.5 23.0712 1.5 22.375V3.625L1.5127 3.36523C1.57242 2.76442 1.83788 2.19923 2.26855 1.76855L2.46094 1.59473C2.92811 1.2118 3.51566 1 4.125 1H22.875ZM5.92871 18.4521L5.86719 18.4922C5.83203 18.5274 5.8125 18.5753 5.8125 18.625C5.8125 18.6747 5.83203 18.7226 5.86719 18.7578L5.92871 18.7979C5.95117 18.8071 5.97523 18.8125 6 18.8125H21C21.0497 18.8125 21.0976 18.793 21.1328 18.7578L21.1729 18.6963C21.1821 18.6738 21.1875 18.6498 21.1875 18.625C21.1875 18.6002 21.1821 18.5762 21.1729 18.5537L21.1328 18.4922C21.0976 18.457 21.0497 18.4375 21 18.4375H6C5.97523 18.4375 5.95117 18.4429 5.92871 18.4521ZM6 12.8125C5.95027 12.8125 5.90235 12.832 5.86719 12.8672C5.83202 12.9024 5.8125 12.9503 5.8125 13C5.8125 13.0497 5.83202 13.0976 5.86719 13.1328C5.90235 13.168 5.95027 13.1875 6 13.1875H21C21.0497 13.1875 21.0977 13.168 21.1328 13.1328L21.1729 13.0713C21.1821 13.0488 21.1875 13.0248 21.1875 13C21.1875 12.9752 21.1821 12.9512 21.1729 12.9287L21.1328 12.8672C21.0977 12.832 21.0497 12.8125 21 12.8125H6ZM5.92871 7.20215L5.86719 7.24219C5.83202 7.27735 5.8125 7.32527 5.8125 7.375C5.8125 7.42473 5.83202 7.47265 5.86719 7.50781L5.92871 7.54785C5.95117 7.55711 5.97523 7.5625 6 7.5625H21C21.0497 7.5625 21.0977 7.54297 21.1328 7.50781L21.1729 7.44629C21.1821 7.42383 21.1875 7.39977 21.1875 7.375C21.1875 7.35023 21.1821 7.32617 21.1729 7.30371L21.1328 7.24219C21.0977 7.20703 21.0497 7.1875 21 7.1875H6C5.97523 7.1875 5.95117 7.19289 5.92871 7.20215Z" stroke="#C8C8C8" stroke-width="1.5"/>
</svg>
