<svg width="23" height="24" viewBox="0 0 23 24" fill="none" xmlns="http://www.w3.org/2000/svg">
<path d="M6.5 14.25H16.5C17.8054 14.25 19.0604 14.7364 20.0234 15.6084L20.2119 15.7881C21.1965 16.7727 21.75 18.1076 21.75 19.5C21.75 20.1383 21.5281 20.7538 21.127 21.2432L20.9443 21.4443C20.4286 21.9601 19.7293 22.25 19 22.25H4C3.36168 22.25 2.74624 22.0281 2.25684 21.627L2.05566 21.4443C1.53994 20.9286 1.25 20.2293 1.25 19.5C1.25 18.1946 1.73638 16.9396 2.6084 15.9766L2.78809 15.7881C3.77265 14.8035 5.10761 14.25 6.5 14.25ZM11.5 1.75C12.4946 1.75 13.4508 2.12069 14.1846 2.78516L14.3281 2.92188C15.0783 3.67202 15.5 4.68913 15.5 5.75C15.5 6.74461 15.1293 7.70079 14.4648 8.43457L14.3281 8.57812C13.578 9.32827 12.5609 9.75 11.5 9.75C10.5054 9.75 9.54921 9.37931 8.81543 8.71484L8.67188 8.57812C7.92173 7.82798 7.5 6.81087 7.5 5.75C7.5 4.75539 7.87069 3.79921 8.53516 3.06543L8.67188 2.92188C9.37516 2.21859 10.3131 1.8039 11.3018 1.75488L11.5 1.75Z" stroke="#C8C8C8" stroke-width="2"/>
</svg>
