<svg width="16" height="22" viewBox="0 0 16 22" fill="none" xmlns="http://www.w3.org/2000/svg">
<path d="M0.926819 4.6605C0.926819 3.38206 0.926819 2.74284 1.17566 2.25429C1.39453 1.82475 1.74376 1.47552 2.1733 1.25665C2.66184 1.00781 3.30106 1.00781 4.5795 1.00781H10.9717C12.2501 1.00781 12.8894 1.00781 13.3779 1.25665C13.8074 1.47552 14.1567 1.82475 14.3755 2.25429C14.6244 2.74284 14.6244 3.38206 14.6244 4.6605V19.8477C14.6244 20.4024 14.6244 20.6798 14.5091 20.8316C14.4593 20.8976 14.3957 20.952 14.3228 20.9911C14.2499 21.0301 14.1693 21.0528 14.0867 21.0576C13.8961 21.069 13.6656 20.9149 13.2044 20.6079L7.7756 16.9883L2.3468 20.6067C1.88565 20.9149 1.65507 21.069 1.46331 21.0576C1.38093 21.0526 1.30062 21.0299 1.22791 20.9908C1.15519 20.9518 1.0918 20.8975 1.04211 20.8316C0.926819 20.6798 0.926819 20.4024 0.926819 19.8477V4.6605Z" stroke="black" stroke-width="1.14146" stroke-linecap="round" stroke-linejoin="round"/>
</svg>
