<svg width="26" height="26" viewBox="0 0 26 26" fill="none" xmlns="http://www.w3.org/2000/svg">
<path d="M11.6255 3.97454C11.3004 3.64959 10.8596 3.46704 10.4 3.46704C9.94038 3.46704 9.49958 3.64959 9.17453 3.97454L1.37453 11.7745C1.04958 12.0996 0.867035 12.5404 0.867035 13C0.867035 13.4596 1.04958 13.9004 1.37453 14.2255L9.17453 22.0255C9.50144 22.3412 9.93929 22.5159 10.3938 22.512C10.8482 22.508 11.283 22.3257 11.6044 22.0044C11.9257 21.683 12.108 21.2482 12.112 20.7938C12.1159 20.3393 11.9412 19.9014 11.6255 19.5745L6.93333 14.7333H23.4C23.8597 14.7333 24.3006 14.5507 24.6256 14.2257C24.9507 13.9006 25.1333 13.4597 25.1333 13C25.1333 12.5403 24.9507 12.0994 24.6256 11.7744C24.3006 11.4493 23.8597 11.2667 23.4 11.2667H6.93333L11.6255 6.42547C11.9504 6.10042 12.133 5.65962 12.133 5.2C12.133 4.74039 11.9504 4.29959 11.6255 3.97454Z" fill="black"/>
</svg>
